<?xml version="1.0" standalone="no"?><svg xmlns="http://www.w3.org/2000/svg" viewBox="0 0 1440 320"><path fill="#171c18" fill-opacity="1" d="M0,288L40,272C80,256,160,224,240,208C320,192,400,192,480,208C560,224,640,256,720,277.3C800,299,880,309,960,304C1040,299,1120,277,1200,256C1280,235,1360,213,1400,202.7L1440,192L1440,320L1400,320C1360,320,1280,320,1200,320C1120,320,1040,320,960,320C880,320,800,320,720,320C640,320,560,320,480,320C400,320,320,320,240,320C160,320,80,320,40,320L0,320Z"></path></svg>